<?xml version="1.0" encoding="UTF-8"?>
<!DOCTYPE svg PUBLIC "-//W3C//DTD SVG 1.1//EN" "http://www.w3.org/Graphics/SVG/1.1/DTD/svg11.dtd">
<!-- Creator: CorelDRAW 2017 -->
<svg xmlns="http://www.w3.org/2000/svg" xml:space="preserve" width="527.994mm" height="109.991mm" version="1.1" style="shape-rendering:geometricPrecision; text-rendering:geometricPrecision; image-rendering:optimizeQuality; fill-rule:evenodd; clip-rule:evenodd"
viewBox="0 0 52799.4 10999.1"
 xmlns:xlink="http://www.w3.org/1999/xlink">
 <defs>
  <style type="text/css">
   <![CDATA[
    .fil5 {fill:#4B4B4D;fill-rule:nonzero}
    .fil1 {fill:#A32630;fill-rule:nonzero}
    .fil2 {fill:#E85538;fill-rule:nonzero}
    .fil3 {fill:#F0A741;fill-rule:nonzero}
    .fil0 {fill:#F29035;fill-rule:nonzero}
    .fil4 {fill:#FE6A00;fill-rule:nonzero}
   ]]>
  </style>
 </defs>
 <g id="Camada_x0020_1">
  <metadata id="CorelCorpID_0Corel-Layer"/>
  <path class="fil0" d="M16269.33 7753.09c-174.3,98.53 -361.06,177.27 -557.38,233.5l237.27 885.55c274.47,-77.33 535.34,-187.43 778.2,-325.58l-458.09 -793.47zm-625.29 252.73c-192.2,49.39 -393.1,76.48 -599.73,80.01l0 916.38c288.58,-3.57 568.89,-42.02 836.79,-111.62l-237.06 -884.77zm1163.91 -657.4c-143.96,140.79 -304.02,265.08 -477.48,369.46l457.9 793.05c242.81,-144.68 466.69,-317.89 667.06,-514.95l-647.48 -647.56zm-19.58 -4860.1l-457.9 793.04c173.46,104.39 333.55,228.71 477.51,369.46l647.45 -647.52c-200.37,-197.13 -424.25,-370.31 -667.06,-514.98zm-2415.36 501.36c192.69,-48.22 393.84,-74.57 600.75,-76.66l0 -916.16c-288.86,2.19 -569.53,39.34 -837.92,107.74l237.17 885.08zm-1592.44 1182.62c104.74,-174.48 229.56,-335.49 371.06,-480.17l-647.49 -647.52c-197.88,201.12 -371.62,425.94 -516.65,669.82l793.08 457.87zm963.9 -933.59c175.33,-97.76 363.18,-175.47 560.42,-230.65l-237.17 -885.26c-275.45,76.2 -537.35,185.21 -781.26,322.65l458.01 793.26zm-542.75 403.75c145.24,-140.75 306.71,-264.65 481.54,-368.54l-457.94 -793.19c-244.23,144.18 -469.51,317.08 -671.19,514.1l647.59 647.63zm4022.86 3177.07c-103.51,173.85 -226.95,334.33 -366.96,478.79l647.59 647.63c196.36,-200.94 368.69,-425.27 512.55,-668.47l-793.18 -457.95zm35.2 -2578.65c97.58,174.41 175.26,361.21 230.58,557.35l885.33 -237.2c-76.38,-274.36 -185.42,-535.17 -322.61,-778.16l-793.3 458.01zm249.31 625.37c48.47,191.77 75.04,392.11 77.82,598.1l916.2 0c-2.85,-287.94 -40.39,-567.76 -109.04,-835.24l-884.98 237.14zm-3.84 -1812.96c196.32,200.94 368.65,425.31 512.51,668.51l-793.18 457.94c-103.51,-173.84 -226.95,-334.36 -366.93,-478.82l647.6 -647.63z"/>
  <path class="fil1" d="M13855.97 1060.04c357.72,-92.25 732.23,-142.07 1117.82,-144.29l0 -915.77c-467.54,2.25 -921.53,62.93 -1354.85,175.47l237.03 884.59zm2304.98 8874.89c-357.22,93.52 -731.34,144.78 -1116.61,148.41l0 915.78c467.26,-3.71 920.75,-65.79 1353.68,-179.64l-237.07 -884.55zm4162.07 -5822.66c112.85,432.4 173.99,885.44 176.95,1352.09l-915.78 0c-2.92,-384.7 -53.23,-758.26 -145.76,-1115.09l884.59 -237z"/>
  <path class="fil2" d="M18473.88 4607.73c70.48,274.32 109,561.27 111.86,856.62l915.81 0c-2.93,-377.26 -52.24,-743.7 -142.94,-1093.69l-884.73 237.07zm-1705.12 4010.37c-249.09,141.78 -516.63,254.63 -798.15,333.9l237.03 884.56c359.66,-100.26 701.35,-244.05 1018.92,-425.49l-457.8 -792.97zm-866.24 352.35c-274.74,71.44 -562.22,110.88 -858.2,114.44l0 915.71c377.9,-3.63 744.82,-53.87 1095.23,-145.59l-237.03 -884.56zm2222.14 -5228.89c140.76,249.16 252.55,516.67 330.84,798.05l884.66 -237.03c-99.31,-359.55 -242.11,-701.15 -422.53,-1018.82l-792.97 457.8zm-4879.58 -1367.72c250.12,-141.01 518.69,-252.88 801.2,-330.98l-237.03 -884.59c-360.65,99.06 -703.37,241.9 -1021.97,422.56l457.8 793.01zm632.25 -1234.06c350.87,-90.41 718.22,-139.27 1096.44,-141.46l0 915.81c-296.27,2.15 -584.1,40.29 -859.34,110.49l-237.1 -884.84z"/>
  <path class="fil3" d="M14654.96 4041.77c102.59,-24.94 209.16,-39.16 318.84,-41.7l0 -1000.37c-199.04,2.79 -392.57,28.54 -577.92,75.39l259.08 966.68zm-365.23 141.46c93.41,-51.22 192.97,-92.57 297.04,-123.15l-258.91 -966.22c-189.44,53.69 -369.71,129.01 -538.05,223.44l499.92 865.93zm-780.45 1281.22c2.61,-109.5 16.86,-216.25 41.8,-318.84l-966.68 -259.01c-46.85,185.32 -72.6,378.88 -75.39,577.85l1000.27 0zm464.75 -1049.69c77.54,-73.94 162.63,-140.02 254.6,-196.14l-500.06 -866.11c-167.57,100.37 -322.3,219.78 -461.61,355.25l707.07 707zm-404.6 662.66c30.62,-104.07 71.82,-203.59 123.08,-297l-865.93 -499.96c-94.4,168.34 -169.68,348.65 -223.45,538.13l966.3 258.83zm158.5 -358.11c56.13,-91.86 122.13,-177.02 196.22,-254.6l-707.08 -707.03c-135.36,139.27 -254.88,294 -355.21,461.61l866.07 500.02zm1635.34 2238.44c-102.7,24.87 -209.38,39.16 -318.91,41.77l0 1000.16c199,-2.68 392.46,-28.36 577.81,-75.28l-258.9 -966.65zm-389.47 41.77c-109.68,-2.61 -216.25,-16.9 -318.84,-41.77l-259.08 966.65c185.35,46.92 378.88,72.6 577.92,75.28l0 -1000.16zm-1049.65 -464.75c-74.09,-77.44 -140.09,-162.67 -196.22,-254.6l-866.07 500.03c100.33,167.64 219.85,322.4 355.21,461.57l707.08 -707zm662.62 404.67c-104.07,-30.62 -203.63,-71.93 -297.04,-123.22l-499.92 865.89c168.34,94.54 348.61,169.79 538.05,223.52l258.91 -966.19zm-358.25 -158.54c-91.86,-56.09 -177.02,-122.16 -254.49,-196.25l-707.07 707c139.24,135.47 294.04,255.03 461.61,355.32l499.95 -866.07zm1499.91 35.32c-93.52,51.29 -193.01,92.6 -297.04,123.22l258.83 966.19c189.44,-53.73 369.71,-129.05 538.16,-223.52l-499.95 -865.89zm597.11 -2035.8c51.19,93.41 92.67,192.93 123.15,297.03l966.15 -258.86c-53.7,-189.45 -128.87,-369.75 -223.35,-538.13l-865.95 499.96zm-281.48 1804.23c-77.51,74.09 -162.63,140.16 -254.64,196.25l500.14 866.07c167.64,-100.29 322.33,-219.85 461.6,-355.32l-707.1 -707zm464.71 -1049.68c-2.57,109.67 -16.83,216.28 -41.73,318.97l966.67 259.01c46.81,-185.35 72.6,-378.92 75.28,-577.98l-1000.22 0zm-60.08 387.13c-30.48,104.03 -71.82,203.52 -123.15,296.97l865.95 499.88c94.48,-168.34 169.65,-348.58 223.35,-537.98l-966.15 -258.87zm-158.5 358.07c-56.23,91.93 -122.24,177.16 -196.28,254.6l707.09 706.93c135.4,-139.17 254.92,-293.93 355.29,-461.5l-866.1 -500.03zm-1245.83 -2280.1c109.53,2.54 216.21,16.76 318.87,41.7l258.94 -966.68c-185.35,-46.85 -378.81,-72.6 -577.81,-75.39l0 1000.37zm1245.2 -647.56l-500.17 866.11c92.04,56.12 177.16,122.23 254.6,196.21l707.17 -707.07c-139.27,-135.4 -294.07,-254.88 -461.6,-355.25zm-858.21 707.57c104.04,30.58 203.56,71.86 297.08,123.15l499.88 -865.93c-168.38,-94.43 -348.68,-169.75 -538.12,-223.48l-258.84 966.26zm-1738.84 2158.99c-51.26,-93.45 -92.46,-192.94 -123.08,-296.97l-966.3 258.87c53.77,189.4 129.05,369.64 223.42,537.98l865.96 -499.88zm-141.43 -365.13c-24.94,-102.62 -39.19,-209.3 -41.8,-318.97l-1000.27 0c2.79,199.13 28.54,392.7 75.39,577.98l966.68 -259.01zm2915.96 -708.33c24.9,102.59 39.16,209.34 41.73,318.84l1000.22 0c-2.68,-198.97 -28.47,-392.53 -75.35,-577.85l-966.6 259.01zm333.96 -1387.93c135.4,139.27 254.92,294 355.29,461.61l-866.1 500.02c-56.23,-91.86 -122.24,-177.02 -196.28,-254.6l707.09 -707.03z"/>
  <path class="fil1" d="M11046.22 7069.31c-236.78,0 -429.47,192.58 -429.47,429.47 0,236.82 192.69,429.4 429.47,429.4 236.79,0 429.48,-192.58 429.48,-429.4 0,-236.89 -192.69,-429.47 -429.48,-429.47zm-4584.38 0.62c-236.79,0 -429.51,192.65 -429.51,429.61 0,236.89 192.72,429.54 429.51,429.54 236.82,0 429.47,-192.65 429.47,-429.54 0,-236.96 -192.65,-429.61 -429.47,-429.61z"/>
  <path class="fil4" d="M20769.62 7440.12c860.07,0 1542.99,-691.36 1542.99,-1542.9 0,-1171.94 927.36,-2107.79 2107.79,-2107.79l0 564.87c-860.05,0 -1542.9,691.37 -1542.9,1542.92 0,1171.92 -927.51,2107.78 -2107.88,2107.78l0 -564.88z"/>
  <path class="fil4" d="M27927.75 5922.51c0,-859.96 -691.37,-1551.33 -1551.33,-1551.33 -851.56,0 -1551.27,691.37 -1551.27,1551.33 0,851.56 699.71,1551.36 1551.27,1551.36 859.96,0 1551.33,-699.8 1551.33,-1551.36zm564.89 8.43c0,1171.94 -935.85,2107.8 -2124.65,2107.8 -1180.37,0 -2107.8,-935.86 -2107.8,-2107.8 0,-1188.77 910.57,-2124.65 2107.8,-2124.65 1138.19,0 2124.65,927.45 2124.65,2124.65z"/>
  <path class="fil4" d="M28871.84 3806.27c0,-1163.51 927.51,-2099.37 2107.88,-2099.37l0 564.89c-860.07,0 -1542.99,691.35 -1542.99,1534.48l0 143.33 1374.35 0 0 564.89 -1374.35 0 0 3490.51 -564.89 0 0 -4198.73z"/>
  <path class="fil4" d="M31005.01 3047.5l564.88 0 0 767.24 1534.49 0 0 564.89 -1534.49 0 0 1542.9c0,843.13 682.93,1534.48 1542.92,1534.48l0 564.89c-1180.37,0 -2107.8,-935.86 -2107.8,-2099.37l0 -2875.03z"/>
  <path class="fil4" d="M33331.88 3831.58l564.89 0 0 2124.72c0,859.9 691.43,1551.33 1551.33,1551.33 851.63,0 1551.42,-699.86 1551.42,-1559.85l0 -2116.2 564.9 0 0 2183.66c33.72,826.33 708.2,1492.39 1551.33,1492.39 851.56,0 1551.33,-699.86 1551.33,-1559.85l0 -2116.2 564.89 0 0 2116.2c0,1197.23 -986.45,2124.66 -2124.65,2124.66 -801.04,0 -1475.46,-421.55 -1838,-1053.88 -371.04,640.76 -1070.84,1053.88 -1829.56,1053.88 -1197.23,0 -2107.88,-935.86 -2107.88,-2124.66l0 -2116.2z"/>
  <path class="fil4" d="M45253.57 5922.51c0,-851.53 -699.8,-1551.33 -1551.33,-1551.33 -859.99,0 -1551.27,699.8 -1551.27,1551.33 0,859.99 691.28,1551.36 1551.27,1551.36 851.53,0 1551.33,-691.37 1551.33,-1551.36zm564.89 8.43c0,92.75 -8.36,193.94 -16.86,278.24 16.86,472.14 261.44,910.56 649.2,1180.45l0 649.11c-438.43,-193.91 -775.67,-522.72 -986.46,-927.43 -379.33,564.9 -1028.59,927.43 -1770.53,927.43 -1180.37,0 -2107.8,-935.86 -2107.8,-2107.8 0,-1188.77 910.57,-2124.65 2107.8,-2124.65 1138.19,0 2124.65,927.45 2124.65,2124.65z"/>
  <path class="fil4" d="M46526.71 3840.03l564.87 0 0 657.62c379.33,-413.2 927.45,-666.05 1542.93,-666.05l0 564.89c-843.13,0 -1509.18,657.63 -1542.93,1475.44l0 2141.54 -564.87 0 0 -4173.44z"/>
  <path class="fil4" d="M49401.63 6782.48l2158.4 -2158.38c-244.51,-168.55 -548.03,-269.8 -876.85,-269.8 -859.98,0 -1551.41,691.37 -1551.41,1551.42 0,328.81 101.24,632.33 269.86,876.76zm404.64 404.7c244.58,168.62 548.1,269.87 876.91,269.87 859.9,0 1559.77,-682.94 1559.77,-1542.99l556.46 0c0,1172.03 -935.86,2107.88 -2124.74,2107.88 -1180.29,0 -2107.8,-935.85 -2107.8,-2107.88 0,-1188.8 910.57,-2124.65 2107.8,-2124.65 674.57,0 1289.98,328.81 1686.32,834.69l-2554.72 2563.08z"/>
  <path class="fil5" d="M3998.05 5464.35l1000.06 0c-18.91,-1353.04 -1111.29,-2445.84 -2463.73,-2464.64l0 1000.37c800.2,18.45 1445.29,663.71 1463.67,1464.27zm-2998.01 70.52l-1000.05 0c18.76,1353.21 1111.25,2446.01 2463.9,2464.82l0 -1000.38c-800.52,-18.55 -1445.36,-663.82 -1463.85,-1464.44zm4961.77 1964.65c0,-276.3 223.91,-500.21 500.03,-500.21 -800.28,-18.55 -1445.25,-663.82 -1463.73,-1464.44l-1000.06 0c-18.45,800.62 -663.47,1445.89 -1463.67,1464.44l0 1000.38c802.95,-11.15 1514.33,-400.94 1963.66,-999 449.44,598.06 1160.74,987.85 1963.8,999 -276.12,0 -500.03,-223.91 -500.03,-500.17zm-3497.92 -4499.81l0 1000.37c-800.52,18.45 -1445.36,663.71 -1463.85,1464.27l-1000.05 0c18.76,-1353.04 1111.25,-2445.84 2463.9,-2464.64zm3791.15 2464.68l999.95 0c18.49,-800.31 663.54,-1445.33 1463.75,-1463.75l0 -1000.02c-1352.45,18.77 -2444.89,1111.22 -2463.7,2463.77zm4998.05 70.48l-1000.02 0c-18.48,800.38 -663.47,1445.36 -1463.78,1463.88l0 1000.05c1352.62,-18.87 2445.07,-1111.25 2463.8,-2463.93zm-3998.1 0l-999.95 0c18.81,1352.68 1111.25,2445.06 2463.7,2463.93l0 -1000.05c-800.21,-18.52 -1445.26,-663.5 -1463.75,-1463.88zm2998.08 -70.48l1000.02 0c-18.73,-1352.55 -1111.18,-2445 -2463.8,-2463.77l0 1000.02c800.31,18.42 1445.3,663.44 1463.78,1463.75zm2256.93 0l1000.02 0c18.49,-800.31 663.44,-1445.33 1463.75,-1463.75l0 -1000.02c-1352.59,18.77 -2444.96,1111.22 -2463.77,2463.77zm-1463.78 1534.36c276.19,0 500,223.87 500,500.03 0,276.08 -223.81,500.02 -500,500.02 1352.52,-18.87 2445,-1111.25 2463.8,-2463.93l-1000.02 0c-18.45,800.38 -663.39,1445.36 -1463.78,1463.88z"/>
 </g>
</svg>
